PathFileType	4	(X/Y/Z)	C:/Users/Carlo/Dropbox/Carlos/SARAH/CongressoMarcha2025/WorkshopOpenSim/C3D/Caso02/Static.c3d.trc
DataRate	CameraRate	NumFrames	NumMarkers	Units	OrigDataRate	OrigDataStartFrame	OrigNumFrames
100.000000	100.000000	2	141	mm	100.000000	25	100
Frame#	Time	LFHD			RFHD			LBHD			RBHD			C7			T10			CLAV			STRN			RBAK			LSHO			LUPA			LELB			LFRM			LWRA			LWRB			LFIN			RSHO			RUPA			RELB			RFRM			RWRA			RWRB			RFIN			LASI			RASI			LPSI			RPSI			LTHI			LKNE			LTIB			LANK			LHEE			LTOE			RTHI			RKNE			RTIB			RANK			RHEE			RTOE			PELO			PELA			PELL			PELP			LFEO			LFEA			LFEL			LFEP			LTIO			LTIA			LTIL			LTIP			LFOO			LFOA			LFOL			LFOP			LTOO			LTOA			LTOL			LTOP			RFEO			RFEA			RFEL			RFEP			RTIO			RTIA			RTIL			RTIP			RFOO			RFOA			RFOL			RFOP			RTOO			RTOA			RTOL			RTOP			HEDO			HEDA			HEDL			HEDP			LCLO			LCLA			LCLL			LCLP			RCLO			RCLA			RCLL			RCLP			TRXO			TRXA			TRXL			TRXP			LHUO			LHUA			LHUL			LHUP			LRAO			LRAA			LRAL			LRAP			LHNO			LHNA			LHNL			LHNP			RHUO			RHUA			RHUL			RHUP			RRAO			RRAA			RRAL			RRAP			RHNO			RHNA			RHNL			RHNP			LHipAngles			LKneeAngles			LAbsAnkleAngle			LAnkleAngles			RHipAngles			RKneeAngles			RAnkleAngles			RAbsAnkleAngle			LPelvisAngles			RPelvisAngles			LFootProgressAngles			RFootProgressAngles			RNeckAngles			LNeckAngles			RSpineAngles			LSpineAngles			LShoulderAngles			LElbowAngles			LWristAngles			RShoulderAngles			RElbowAngles			RWristAngles			RThoraxAngles			LThoraxAngles			RHeadAngles			LHeadAngles			
		X1	Y1	Z1	X2	Y2	Z2	X3	Y3	Z3	X4	Y4	Z4	X5	Y5	Z5	X6	Y6	Z6	X7	Y7	Z7	X8	Y8	Z8	X9	Y9	Z9	X10	Y10	Z10	X11	Y11	Z11	X12	Y12	Z12	X13	Y13	Z13	X14	Y14	Z14	X15	Y15	Z15	X16	Y16	Z16	X17	Y17	Z17	X18	Y18	Z18	X19	Y19	Z19	X20	Y20	Z20	X21	Y21	Z21	X22	Y22	Z22	X23	Y23	Z23	X24	Y24	Z24	X25	Y25	Z25	X26	Y26	Z26	X27	Y27	Z27	X28	Y28	Z28	X29	Y29	Z29	X30	Y30	Z30	X31	Y31	Z31	X32	Y32	Z32	X33	Y33	Z33	X34	Y34	Z34	X35	Y35	Z35	X36	Y36	Z36	X37	Y37	Z37	X38	Y38	Z38	X39	Y39	Z39	X40	Y40	Z40	X41	Y41	Z41	X42	Y42	Z42	X43	Y43	Z43	X44	Y44	Z44	X45	Y45	Z45	X46	Y46	Z46	X47	Y47	Z47	X48	Y48	Z48	X49	Y49	Z49	X50	Y50	Z50	X51	Y51	Z51	X52	Y52	Z52	X53	Y53	Z53	X54	Y54	Z54	X55	Y55	Z55	X56	Y56	Z56	X57	Y57	Z57	X58	Y58	Z58	X59	Y59	Z59	X60	Y60	Z60	X61	Y61	Z61	X62	Y62	Z62	X63	Y63	Z63	X64	Y64	Z64	X65	Y65	Z65	X66	Y66	Z66	X67	Y67	Z67	X68	Y68	Z68	X69	Y69	Z69	X70	Y70	Z70	X71	Y71	Z71	X72	Y72	Z72	X73	Y73	Z73	X74	Y74	Z74	X75	Y75	Z75	X76	Y76	Z76	X77	Y77	Z77	X78	Y78	Z78	X79	Y79	Z79	X80	Y80	Z80	X81	Y81	Z81	X82	Y82	Z82	X83	Y83	Z83	X84	Y84	Z84	X85	Y85	Z85	X86	Y86	Z86	X87	Y87	Z87	X88	Y88	Z88	X89	Y89	Z89	X90	Y90	Z90	X91	Y91	Z91	X92	Y92	Z92	X93	Y93	Z93	X94	Y94	Z94	X95	Y95	Z95	X96	Y96	Z96	X97	Y97	Z97	X98	Y98	Z98	X99	Y99	Z99	X100	Y100	Z100	X101	Y101	Z101	X102	Y102	Z102	X103	Y103	Z103	X104	Y104	Z104	X105	Y105	Z105	X106	Y106	Z106	X107	Y107	Z107	X108	Y108	Z108	X109	Y109	Z109	X110	Y110	Z110	X111	Y111	Z111	X112	Y112	Z112	X113	Y113	Z113	X114	Y114	Z114	X115	Y115	Z115	X116	Y116	Z116	X117	Y117	Z117	X118	Y118	Z118	X119	Y119	Z119	X120	Y120	Z120	X121	Y121	Z121	X122	Y122	Z122	X123	Y123	Z123	X124	Y124	Z124	X125	Y125	Z125	X126	Y126	Z126	X127	Y127	Z127	X128	Y128	Z128	X129	Y129	Z129	X130	Y130	Z130	X131	Y131	Z131	X132	Y132	Z132	X133	Y133	Z133	X134	Y134	Z134	X135	Y135	Z135	X136	Y136	Z136	X137	Y137	Z137	X138	Y138	Z138	X139	Y139	Z139	X140	Y140	Z140	X141	Y141	Z141	

26	0.25	-356.6056518554689	1742.635009765626	388.4174804687502	-481.5607604980471	1730.904174804688	365.4898376464845	-328.4001770019532	1697.885620117188	240.8800048828126	-469.6629333496096	1695.659179687501	228.2908935546876	-403.2911071777346	1519.041870117188	210.1604919433595	-403.9095153808596	1256.623657226563	161.552719116211	-410.9776000976565	1467.601806640625	354.3079528808595	-410.0540161132815	1288.0537109375	404.7823181152346	-453.4888000488284	1351.438720703125	138.541732788086	-225.1946716308595	1502.7587890625	259.7248535156251	-94.09210205078128	1457.111694335938	273.2796630859376	57.85911560058597	1405.684204101563	298.3939514160157	34.89681625366212	1411.603881835938	430.265563964844	-77.49700927734378	1396.43310546875	525.7097167968752	-7.56201267242432	1392.740478515625	559.824157714844	-61.06424331665042	1420.122314453125	620.553161621094	-590.1125488281252	1505.0283203125	246.7814483642579	-759.6440429687502	1435.731201171875	228.3043060302736	-866.3217773437505	1397.582763671875	244.5734710693361	-834.5759887695317	1436.330688476563	380.6849975585939	-780.998901367188	1431.812622070313	494.5452880859377	-856.2399291992192	1422.830322265625	505.7762145996096	-810.4329223632817	1457.366821289063	577.5022583007815	-302.6250915527345	1027.06689453125	357.8023071289064	-519.7143554687502	1031.38720703125	357.8167114257814	-346.5902709960939	1034.229736328125	168.1715545654297	-484.543884277344	1031.132446289063	166.7733306884766	-214.1177825927736	757.9951171875002	317.746795654297	-237.6019592285157	523.5593261718752	287.1694335937501	-202.5240020751954	317.6194763183595	241.7144622802736	-208.9118041992189	79.77889251708987	220.6439361572267	-251.0244750976564	38.22177505493165	169.1519470214844	-230.8754119873048	44.58432006835939	365.8796386718751	-591.3684082031252	668.5105590820315	312.1463012695314	-566.0989990234377	513.297302246094	296.7733459472657	-593.7352294921877	267.0090332031251	247.7671203613282	-586.968200683594	83.28780364990237	220.6722259521486	-533.1918945312502	46.58047485351564	165.7207336425782	-570.8040161132815	42.86862945556642	363.5209350585939	-413.1448669433596	930.1508789062505	306.9490051269532	-413.1819763183596	927.8529663085942	436.9080810546877	-283.1911926269532	927.5646362304692	306.9403686523439	-410.5588989257815	1060.084228515625	309.2471923828126	-296.184051513672	517.2543945312502	273.4349670410157	-386.1538391113284	473.6006164550784	677.2263183593752	106.6187438964844	560.6064453125002	367.8712768554689	-348.1749267578126	928.6697387695317	306.3287658691407	-253.2601623535157	74.8570251464844	226.474822998047	-193.7909393310548	36.0883255004883	646.0605468750002	166.1261596679688	121.4013824462891	171.3344421386719	-294.1288452148439	496.0722961425784	271.1865539550782	-225.7754211425782	68.24288177490237	360.1865539550782	-247.3351135253907	257.8568420410157	356.2623291015626	-37.11959838867189	89.27966308593753	340.1838684082032	-245.2133636474611	62.10496902465823	170.4020233154297	-219.296112060547	70.28887176513675	423.4480590820315	-226.4826812744142	133.4935302734376	422.1399841308596	-156.4108276367188	77.30113220214847	416.7804870605471	-225.7754211425782	68.2428894042969	360.1865539550782	-506.869323730469	509.8956298828127	284.9194641113282	-425.5112915039065	482.0874633789065	699.4178466796877	-92.4355163574219	486.093444824219	201.977264404297	-478.1147460937502	931.6318969726567	307.5692443847657	-542.1194458007815	79.60210418701175	220.7502288818361	-547.826599121094	18.84220504760743	631.317077636719	-128.4369812011719	45.60543441772462	221.4695281982423	-508.5975341796877	488.7987976074221	281.7733154296876	-581.3239746093752	65.55167388916018	353.5672302246095	-565.4222412109377	259.1896362304689	360.2247009277345	-391.0042724609377	48.68910217285159	389.4404907226565	-545.014587402344	69.13495635986331	162.6179809570313	-593.427185058594	64.35725402832034	417.216979980469	-588.1265869140627	128.9032592773438	419.4361572265627	-529.987243652344	58.73636627197268	429.174743652344	-581.3240356445315	65.55169677734378	353.5672302246095	-392.456970214844	1619.949584960938	213.3154602050782	-423.0086059570315	1680.891235351563	430.2343750000002	-167.1630401611329	1631.330322265626	241.8493499755861	-395.6665649414065	1838.713500976563	151.4034423828126	-228.9415740966798	1445.356323242188	267.1350708007814	-146.7516784667969	1463.402221679688	448.483581542969	-216.0265350341798	1643.217041015626	241.5928192138673	-410.7275085449221	1467.572387695313	347.3125305175782	-587.5953369140627	1447.5791015625	254.3475952148439	-682.285583496094	1466.616943359375	430.4036254882815	-578.880065917969	1248.676391601563	280.5433654785157	-410.7275390625002	1467.572509765625	347.312469482422	-410.7275390625002	1467.572509765625	347.312469482422	-417.886169433594	1468.413330078125	547.547546386719	-610.9643554687502	1467.403930664063	340.1544799804689	-410.5890808105471	1267.209594726563	348.1587219238282	46.03853607177736	1364.103271484375	293.5409545898439	72.21997070312503	1359.529174804688	6.823364257812504	-35.28714752197267	1087.896118164063	290.5211791992189	-228.9415588378907	1445.356323242188	267.1350708007814	-43.19483947753908	1387.645629882813	543.3795166015627	179.4524993896485	1321.152099609375	629.1668701171877	-113.1520080566407	1150.049438476563	540.7819824218752	39.79222869873048	1365.751342773438	311.0296630859376	-83.4994812011719	1402.941528320313	701.3696899414065	-69.02790832519534	1565.620727539063	689.3115234375002	74.56842041015628	1391.947998046875	742.7585449218752	-43.19480514526369	1387.6455078125	543.3795166015627	-852.3082885742192	1356.572998046875	248.3233032226564	-829.2728881835942	1307.755493164063	-26.40847778320314	-940.556762695313	1616.815307617188	194.6811065673829	-587.5953369140627	1447.579223632813	254.3476104736329	-817.5602416992192	1420.62451171875	501.9004821777346	-1048.171020507813	1352.485473632813	550.7127075195315	-894.8988647460942	1648.693847656251	454.8898620605471	-849.875854492188	1361.056640625	266.0736694335939	-796.4668579101567	1445.03076171875	659.777526855469	-818.5575561523442	1603.193847656251	638.278259277344	-638.249206542969	1463.859985351563	635.727722167969	-817.5603027343755	1420.624267578125	501.900573730469	-8.316431999206547	12.5028886795044	-3.569962501525881	1.949120640754701	-20.47874832153321	1.082856297492981	0	0	7.268350124359134	1.231854651921258e-13	1.430018186569214	7.270645141601566	-2.756209611892701	11.16397857666016	-2.057713508605958	0.2962555587291719	-11.48056507110596	5.434906959533693	2.985157422901592e-13	-10.54067516326905	6.491543292999271	0	0	6.381540775299076	-1.139986872673035	0.01636027544736863	1.013294339179993	1.139986872673035	-0.01636027544736863	1.013294339179993	-6.519515037536625	-5.844869613647463	-91.852409362793	-4.776119709014894	-10.7645263671875	-88.92493438720706	2.799267292022706	5.182404518127443	-15.33099460601807	-2.799267292022706	-5.182404518127443	-15.33099460601807	1.223632216453553	2.03025245666504	-1.21235191822052	-1.223632216453553	-2.03025245666504	-1.21235191822052	73.52032470703128	0.2533289492130281	3.229839086532595	-7.95138679647378e-16	2.061893949849293e-13	105.0030136108399	1.730665206909181	102.178581237793	-5.041091918945314	71.07606506347659	-10.15520095825196	0.6252692341804507	0	3.913672337596543e-12	102.9503250122071	-5.05938243865967	99.95905303955084	-1.715329408645631	-0.03956212475895883	-2.04750418663025	-0.2419805079698564	0.03956212475895883	2.04750418663025	-0.2419805079698564	-0.8087781071662907	-7.722650051116947	15.80195045471192	0.8087781071662907	7.722650051116947	15.80195045471192	
27	0.26	-356.5039367675782	1742.668212890626	389.1206359863284	-481.5232849121096	1730.864379882813	365.7221679687501	-328.3862304687501	1697.954467773438	241.0225067138673	-469.6454162597659	1695.771972656251	228.4714660644532	-403.310729980469	1519.055419921875	210.1619415283204	-403.9704589843752	1256.638671875	161.5353088378907	-411.0044860839846	1467.66796875	354.378143310547	-410.0842895507815	1288.129028320313	404.8047790527346	-453.6002502441409	1351.481201171875	138.537338256836	-225.214569091797	1502.759887695313	259.7374572753907	-94.13928985595706	1457.153076171875	273.2828369140626	57.81606292724612	1405.737060546875	298.4103393554689	34.75598907470705	1411.63232421875	430.2812805175784	-76.79747009277347	1396.072143554688	525.4650878906252	-7.814595222473148	1392.767333984375	559.8098754882815	-61.34859085083011	1420.114013671875	620.4752197265627	-590.1279296875002	1505.123413085938	246.7449951171876	-759.7116699218752	1436.05615234375	228.3213958740236	-866.4644165039067	1398.003295898438	244.571014404297	-834.6547241210942	1436.69873046875	380.6965332031251	-781.0766601562505	1432.094848632813	494.5660705566409	-856.2861938476567	1423.182495117188	505.7724914550784	-810.462768554688	1457.66943359375	577.5157470703127	-302.5984802246095	1027.093505859375	357.7496948242189	-519.6760864257815	1031.37109375	357.8052368164064	-346.5922241210939	1034.240600585938	168.1164245605469	-484.5809020996096	1031.156860351563	166.7434387207032	-214.1123504638673	758.0240478515627	317.6633911132814	-237.6140747070314	523.5625000000002	287.1799926757814	-202.5408782958986	317.6353759765626	241.6994934082032	-208.9097900390626	79.7985534667969	220.6373748779298	-250.9949798583986	38.22470855712892	169.1454772949219	-230.8701629638673	44.60020446777345	365.8926391601564	-591.3425903320315	668.4871215820315	312.2239685058595	-566.064392089844	513.2554321289065	296.8572692871095	-593.8853149414065	266.9587707519532	247.7138671875001	-586.9536743164065	83.29785156250003	220.6703643798829	-533.187683105469	46.60084533691408	165.7088623046876	-570.771667480469	42.87612533569337	363.5202026367189	-413.1026000976565	930.1591186523442	306.9107360839845	-413.1147766113284	927.8525390625005	436.8696594238284	-283.1484375000001	927.5983276367192	306.8774719238282	-410.5416259765627	1060.0927734375	309.2171020507814	-296.2054443359376	517.2592773437502	273.4842224121095	-385.9272155761721	473.7448730468752	677.3458251953127	106.6608886718751	560.5993652343752	367.6546020507814	-348.1325683593751	928.690795898438	306.2781372070314	-253.2532501220704	74.87053680419925	226.5000762939454	-193.4786376953126	36.11661911010744	646.0402832031252	166.0836029052735	121.4726715087891	171.0591888427735	-294.1488037109376	496.0774536132815	271.2346191406251	-225.7843017578126	68.26722717285159	360.2155761718751	-247.3765563964845	257.8773193359376	356.279998779297	-37.12962341308595	89.33597564697268	340.235809326172	-245.1971435546876	62.11731719970706	170.4288482666016	-219.3133392333986	70.31719970703128	423.4778137207034	-226.5107727050782	133.5205383300782	422.165954589844	-156.428451538086	77.34014129638675	416.8179016113284	-225.7842864990236	68.26722717285159	360.2155761718751	-506.8409423828127	509.8519287109377	284.972381591797	-425.2551269531252	482.1058654785159	699.4666748046877	-92.4163513183594	486.0355224609377	201.8060302734376	-478.0726013183596	931.6273803710942	307.5433044433595	-542.106140136719	79.59970855712893	220.8197174072267	-548.4776000976565	18.91067504882813	631.3450317382815	-128.4765625000001	45.4916114807129	222.1970672607423	-508.5701293945315	488.7551879882815	281.8267517089845	-581.2935180664065	65.54373931884768	353.6411743164064	-565.3486328125002	259.1774902343751	360.3167419433595	-390.9720458984377	48.63592910766604	389.4837036132815	-545.0123291015627	69.13933563232425	162.6867828369141	-593.3873291015627	64.34519958496097	417.2926940917971	-588.0723876953127	128.8897857666016	419.5178833007815	-529.9468383789065	58.70925140380862	429.2402343750002	-581.2935791015627	65.54373931884768	353.6412048339845	-392.5122375488284	1620.133056640626	213.6297607421876	-422.9288635253909	1680.825561523438	430.6373596191409	-167.1994781494141	1631.406738281251	242.0574493408204	-395.6837158203127	1838.971801757813	151.9805908203126	-228.9826202392579	1445.358032226563	267.1412353515626	-146.7242431640626	1463.348388671875	448.4868164062502	-215.9931945800782	1643.237304687501	241.6186523437501	-410.7548828125002	1467.639770507813	347.3826904296876	-587.622741699219	1447.673461914063	254.3086090087892	-682.4180908203127	1466.718139648438	430.361999511719	-578.9470214843752	1248.720458984375	280.5018615722657	-410.7549133300784	1467.639770507813	347.3826293945314	-410.7549133300784	1467.6396484375	347.3826599121095	-417.8994750976565	1468.451049804688	547.6525878906252	-611.026550292969	1467.492431640625	340.2386474609376	-410.6367492675784	1267.242309570313	348.1987915039064	46.00637817382814	1364.15673828125	293.5269470214845	72.20668792724612	1359.72021484375	6.816833496093754	-35.25497436523439	1087.9404296875	290.3752441406251	-228.9825744628907	1445.358032226563	267.1412353515626	-42.94573211669923	1387.476318359375	543.2542724609377	179.6080627441407	1321.02685546875	628.7322998046877	-112.7921905517579	1150.060424804688	540.5454101562502	39.77965545654298	1365.788818359375	311.0078735351564	-84.15161132812503	1403.087524414063	701.4510498046877	-70.13759613037112	1566.233154296876	689.0018310546877	74.1946716308594	1392.711181640625	743.7197875976565	-42.94573974609376	1387.476440429688	543.2542114257815	-852.5007324218755	1356.975708007813	248.3108062744142	-829.5671386718755	1308.171875	-26.48847961425783	-940.4558105468755	1617.387939453126	194.7217254638673	-587.6226806640627	1447.673583984375	254.3086547851564	-817.6286621093755	1420.940185546875	501.9072875976565	-1048.326904296875	1353.071899414063	550.748962402344	-894.6989135742192	1649.125244140626	454.9501953125002	-850.0596313476567	1361.453247070313	266.062469482422	-796.5046386718755	1445.313354492188	659.792907714844	-818.4516601562505	1603.505859375001	638.3087158203127	-638.263610839844	1464	635.736511230469	-817.6287231445317	1420.940185546875	501.907409667969	-8.297286987304691	12.47948837280274	-3.550584077835085	1.939878106117249	-20.48297309875489	1.103489041328431	0	0	7.275465488433841	2.833126799568071e-13	1.477815508842469	7.277907848358158	-2.768356561660767	11.18287086486817	-2.043687582015992	0.3000632524490358	-11.60211658477784	5.444309234619142	-4.970178999266774e-13	-10.44058990478516	6.484847068786625	0	0	6.377030849456791	-1.128968954086304	0.005379003938287498	1.016913414001465	1.128968954086304	-0.005379003938287498	1.016913414001465	-6.529309272766117	-5.837298870086672	-91.85598754882815	-4.788986682891847	-10.7560567855835	-88.92127227783206	2.779213190078736	5.159115314483644	-15.2732162475586	-2.779213190078736	-5.159115314483644	-15.2732162475586	1.206560015678406	2.036966085433961	-1.208037853240967	-1.206560015678406	-2.036966085433961	-1.208037853240967	73.53716278076175	0.2732532620429994	3.232485294342043	1.292100374279324e-15	1.374595966566195e-13	104.9480133056641	1.772005200386048	102.3821487426758	-4.680007457733156	71.1406173706055	-10.15353393554688	0.6306031346321108	0	3.697394766657288e-13	102.9504699707032	-5.049369335174562	99.94414520263678	-1.722407221794129	-0.03376710414886476	-2.043115377426148	-0.2333537340164186	0.03376710414886476	2.043115377426148	-0.2333537340164186	-0.7991836667060856	-7.688295841217045	15.73308849334718	0.7991836667060856	7.688295841217045	15.73308849334718	
